:SAMPLES-PER-SECOND 30
:FULLY-SPECIFIED
:DEGREES
145
root  -54.132 38.416 9.14441 -77.2151 -83.0155 73.6928
RightUpLeg  -25.7493 -14.8673 -6.27453
RightLeg  16.4895 -0.857831 0.357987
RightFoot  7.47217 0.167353 -0.849818
RightToes  7.56698e-010 0 -3.6325e-017
Spine  26.4148 -2.01959 0.507144
Spine1  12.5279 -2.35094 0.745684
HEad  -5.98111 -7.47593 -3.15903
LeftShoulder1  -0.0856319 3.74166 -29.8681
LeftArm  -1.5265 -7.55334 -43.6616
LeftForeArm  24.7467 -30.879 -5.36653
LeftHand  -0.102982 7.62454 -2.87327
RightShoulder  -0.339817 -4.53517 25.8741
RightArm  24.4291 -4.54487 48.7941
RightForeArm  7.33436 23.1182 4.59931
RightHand  -0.195111 3.00995 -2.92503
LeftUpLeg  -6.87261 8.1452 -6.8922
LeftLeg  35.3216 1.77948 1.68786
LeftFoot  -17.9481 0.107836 -0.0997228
LeftToes  -2.88401e-009 5.30678e-011 -1.08654e-010
146
root  -54.7072 37.8839 9.01245 -71.0129 -83.8623 68.3438
RightUpLeg  -30.246 -16.3679 -4.10554
RightLeg  24.2637 0.892915 0.103315
RightFoot  5.58017 0.455598 -2.81262
RightToes  7.56698e-010 0 -3.6325e-017
Spine  28.9477 -2.49306 4.01019
Spine1  11.3974 -1.78511 0.193756
HEad  -7.59573 -9.19536 -3.69597
LeftShoulder1  0.124018 3.1532 -29.3287
LeftArm  -2.31154 -9.52836 -44.9713
LeftForeArm  27.0072 -32.8858 -5.72694
LeftHand  -0.136178 7.82558 -3.99591
RightShoulder  -0.196092 -4.11375 24.2345
RightArm  23.9239 -1.88024 49.3922
RightForeArm  6.29248 21.9221 4.63802
RightHand  -0.241895 3.07696 -3.5568
LeftUpLeg  -14.252 9.18144 -5.13312
LeftLeg  48.584 0.334973 0.814236
LeftFoot  -13.9215 0.00513111 -4.98275
LeftToes  -2.88401e-009 5.30678e-011 -1.08654e-010
147
root  -55.2179 37.3293 8.82499 -58.0464 -84.8378 56.1164
RightUpLeg  -33.7898 -17.9384 -1.91069
RightLeg  30.5734 1.10493 0.475247
RightFoot  3.27835 0.630018 -4.73426
RightToes  7.56698e-010 0 -3.6325e-017
Spine  31.0723 -2.97459 6.71496
Spine1  11.6398 -1.83128 1.04371
HEad  -10.3621 -10.253 -3.74902
LeftShoulder1  0.326575 2.55621 -28.3252
LeftArm  -3.55575 -11.8906 -46.5322
LeftForeArm  27.8725 -34.5943 -6.10726
LeftHand  -0.0735876 7.11641 -2.17603
RightShoulder  0.0432401 -3.32649 21.8453
RightArm  22.3966 2.48823 50.7645
RightForeArm  5.96878 19.4565 5.04299
RightHand  -0.230483 4.03962 -3.10565
LeftUpLeg  -22.3626 10.2933 -2.88343
LeftLeg  60.5994 -0.327498 0.0569827
LeftFoot  -5.23202 0.31498 -6.45353
LeftToes  -2.88401e-009 5.30678e-011 -1.08654e-010
148
root  -55.6386 36.8545 8.64012 -47.7186 -85.3802 45.6353
RightUpLeg  -35.7434 -20.4621 -0.131861
RightLeg  35.4883 2.36958 1.53371
RightFoot  0.516949 0.608562 -5.80053
RightToes  7.56698e-010 0 -3.6325e-017
Spine  33.9599 -3.34782 8.42511
Spine1  12.2411 -1.96325 1.93265
HEad  -12.3507 -11.3486 -2.42034
LeftShoulder1  0.497962 2.01791 -27.3519
LeftArm  -4.35741 -15.6035 -47.5619
LeftForeArm  28.2299 -35.3679 -6.28877
LeftHand  -0.0952897 7.32598 -2.91985
RightShoulder  0.171392 -2.83566 20.0512
RightArm  18.6502 8.39566 51.8374
RightForeArm  7.93037 15.8233 5.87359
RightHand  -0.26107 4.6028 -3.31426
LeftUpLeg  -28.5995 11.6478 -1.43039
LeftLeg  68.0106 -0.134914 0.342826
LeftFoot  0.00136552 0.242027 -2.22515
LeftToes  -2.88401e-009 5.30678e-011 -1.08654e-010
149
root  -56.0491 36.6217 8.45444 -52.393 -85.3542 50.8492
RightUpLeg  -37.4589 -21.1448 0.267192
RightLeg  38.5305 2.7908 2.09003
RightFoot  -1.1278 0.558674 -6.3203
RightToes  7.56698e-010 0 -3.6325e-017
Spine  36.7339 -3.06318 7.99738
Spine1  12.2648 -1.8822 2.64037
HEad  -15.1465 -11.4626 -2.31729
LeftShoulder1  0.652863 1.50623 -26.512
LeftArm  -5.15358 -19.4724 -48.8421
LeftForeArm  28.5487 -35.7449 -6.36935
LeftHand  -0.0447122 6.36224 -1.22899
RightShoulder  0.238668 -2.53292 18.6299
RightArm  13.8586 14.8712 52.2307
RightForeArm  10.2663 12.0644 6.32012
RightHand  -0.321889 4.62202 -4.01781
LeftUpLeg  -33.7147 13.2077 -1.43521
LeftLeg  69.7498 -0.749153 -1.40821
LeftFoot  -1.70083 0.222562 -2.54477
LeftToes  -2.88401e-009 5.30678e-011 -1.08654e-010
150
root  -56.4338 36.4238 8.30128 -49.6384 -85.2985 49.3697
RightUpLeg  -39.5684 -21.1931 0.938871
RightLeg  40.9005 2.51182 2.0271
RightFoot  -2.58081 0.489004 -6.59949
RightToes  7.56698e-010 0 -3.6325e-017
Spine  38.8654 -3.13937 8.24428
Spine1  12.4843 -2.08776 3.2259
HEad  -18.0856 -11.5539 -1.7344
LeftShoulder1  0.801832 1.0011 -25.8226
LeftArm  -5.88057 -24.1505 -49.8584
LeftForeArm  28.7295 -35.3371 -6.25215
LeftHand  -0.0353615 5.65726 -0.883093
RightShoulder  0.32668 -2.12121 17.334
RightArm  8.44779 21.4548 52.3529
RightForeArm  11.6805 8.66387 5.51084
RightHand  -0.286742 4.23917 -3.73936
LeftUpLeg  -38.7922 13.587 -1.62447
LeftLeg  67.5585 -1.29579 -2.71165
LeftFoot  -3.73127 0.235542 -3.16327
LeftToes  -2.88401e-009 5.30678e-011 -1.08654e-010
151
root  -56.7844 36.3113 8.16856 -53.5009 -85.107 54.5688
RightUpLeg  -41.4129 -20.32 0.951755
RightLeg  42.6389 1.92332 1.58559
RightFoot  -3.53094 0.444209 -6.83952
RightToes  7.56698e-010 0 -3.6325e-017
Spine  41.3081 -2.95969 8.03326
Spine1  12.3697 -1.97885 3.6256
HEad  -21.2375 -12.1529 -1.37826
LeftShoulder1  1.01964 0.278942 -25.4623
LeftArm  -5.38876 -29.5719 -50.5857
LeftForeArm  28.4315 -34.0497 -5.93597
LeftHand  -0.0290802 5.44946 0.211598
RightShoulder  0.3884 -1.77758 16.0099
RightArm  3.94148 27.2389 51.9169
RightForeArm  9.17552 6.53305 3.91855
RightHand  -0.444171 5.1137 -5.14987
LeftUpLeg  -42.355 13.8057 -2.38733
LeftLeg  61.5976 -2.38387 -4.1332
LeftFoot  -5.66061 0.19026 -3.22857
LeftToes  -2.88401e-009 5.30678e-011 -1.08654e-010
